Mission.Impossible.II.2000.720p.Bluray.x264.anoXmous

Format                           : MPEG-4
Format profile                   : Base Media
Codec ID                         : isom
File size                        : 700 MiB
Duration                         : 2h 3mn
Overall bit rate mode            : Variable
Overall bit rate                 : 791 Kbps


Video
ID                               : 1
Format                           : AVC
Format/Info                      : Advanced Video Codec
Format profile                   : High@L4.1
Format settings, CABAC           : Yes
Format settings, ReFrames        : 4 frames
Codec ID                         : avc1
Codec ID/Info                    : Advanced Video Coding
Duration                         : 2h 3mn
Bit rate                         : 718 Kbps
Maximum bit rate                 : 5 234 Kbps
Width                            : 1 280 pixels
Height                           : 528 pixels
Display aspect ratio             : 2.40:1
Frame rate mode                  : Constant
Frame rate                       : 23.976 fps
Color space                      : YUV
Chroma subsampling               : 4:2:0
Bit depth                        : 8 bits
Scan type                        : Progressive
Bits/(Pixel*Frame)               : 0.044
Stream size                      : 635 MiB (91%)
Writing library                  : x264 core 120 r2120 0c7dab9


Audio
ID                               : 2
Format                           : AAC
Format/Info                      : Advanced Audio Codec
Format profile                   : LC
Codec ID                         : 40
Duration                         : 2h 3mn
Bit rate mode                    : Variable
Bit rate                         : 72.0 Kbps
Maximum bit rate                 : 98.2 Kbps
Channel(s)                       : 2 channels
Channel positions                : Front: L R
Sampling rate                    : 48.0 KHz 
Compression mode                 : Lossy
Stream size                      : 62.6 MiB (9%)


Menu
00:00:00.000                     : Old Friend
00:05:57.023                     : Holiday
00:10:39.347                     : I See You Found It
00:18:03.416                     : Catch Me
00:23:47.343                     : Sean Ambrose
00:34:47.877                     : A Proper Welcome
00:45:40.071                     : Don't Turn Around
00:56:08.407                     : A Touch of the Flu
01:05:07.695                     : Biocyte
01:11:38.961                     : The Last Strain
01:18:24.742                     : I Guess I Lied
01:25:59.905                     : Supply and Demand
01:35:40.109                     : Smile
01:40:16.802                     : Race Against Time
01:49:33.692                     : Mano a Mano
01:53:59.166                     : Destroyed By Fire
01:58:58.590                     : End Credits

                              SUB:
     Mission.Impossible.II.2000.720p.Bluray.x264.anoXmous_eng.srt
     Mission.Impossible.II.2000.720p.Bluray.x264.anoXmous_swe.srt

               http://www.imdb.com/title/tt0120755/

    +++++++++ This work very fine with PSP and XBOX :) ++++++++++